<?xml version="1.0" encoding="UTF-8" standalone="no"?>
<svg
   width="540.89514"
   height="122.87"
   viewBox="-152.86988 -14.602496 493.65104 112.13793"
   class="css-np3qrs"
   version="1.1"
   id="svg54"
   sodipodi:docname="logo_lightmode.svg"
   inkscape:version="1.3.2 (091e20e, 2023-11-25)"
   xmlns:inkscape="http://www.inkscape.org/namespaces/inkscape"
   xmlns:sodipodi="http://sodipodi.sourceforge.net/DTD/sodipodi-0.dtd"
   xmlns="http://www.w3.org/2000/svg"
   xmlns:svg="http://www.w3.org/2000/svg"
   xmlns:rdf="http://www.w3.org/1999/02/22-rdf-syntax-ns#"
   xmlns:cc="http://creativecommons.org/ns#"
   xmlns:dc="http://purl.org/dc/elements/1.1/">
  <metadata
     id="metadata58">
    <rdf:RDF>
      <cc:Work
         rdf:about="">
        <dc:format>image/svg+xml</dc:format>
        <dc:type
           rdf:resource="http://purl.org/dc/dcmitype/StillImage" />
      </cc:Work>
    </rdf:RDF>
  </metadata>
  <sodipodi:namedview
     pagecolor="#ffffff"
     bordercolor="#ffffff"
     borderopacity="1"
     objecttolerance="10"
     gridtolerance="10"
     guidetolerance="10"
     inkscape:pageopacity="0"
     inkscape:pageshadow="2"
     inkscape:window-width="2560"
     inkscape:window-height="1379"
     id="namedview56"
     showgrid="false"
     inkscape:zoom="1.0542044"
     inkscape:cx="291.68916"
     inkscape:cy="13.280157"
     inkscape:window-x="0"
     inkscape:window-y="25"
     inkscape:window-maximized="0"
     inkscape:current-layer="svg54"
     inkscape:showpageshadow="2"
     inkscape:pagecheckerboard="0"
     inkscape:deskcolor="#d1d1d1" />
  <style
     id="style10">#editor_f0degmjda_1 ._sw1{stroke-width:0.9126559714795008}#editor_f0degmjda_1 ._sw2{stroke-width:1.8253119429590017}#editor_f0degmjda_1 ._sd{stroke-dasharray:9.127 4.563}</style>
  <defs
     id="defs23">
    <pattern
       id="o_f0degmjda_2"
       x="0"
       y="0"
       width="29.204991087344027"
       height="29.204991087344027"
       patternUnits="userSpaceOnUse"
       class="css-1e1xezv">
      <rect
         x="0"
         y="0"
         width="29.204991087344027"
         height="29.204991087344027"
         id="rect12" />
      <circle
         cx="0"
         cy="0"
         r="1.3689839572192513"
         id="circle14" />
      <circle
         cx="29.204991087344027"
         cy="0"
         r="1.3689839572192513"
         id="circle16" />
      <circle
         cx="29.204991087344027"
         cy="29.204991087344027"
         r="1.3689839572192513"
         id="circle18" />
      <circle
         cx="0"
         cy="29.204991087344027"
         r="1.3689839572192513"
         id="circle20" />
    </pattern>
  </defs>
  <svg
     width="512"
     height="512"
     style="overflow:visible;fill:#0000ff"
     viewBox="0 0 512 512"
     data-svgdocument=""
     id="_eKv9-xmu_AWj8eV9AyVMZ"
     class="fl-svgdocument"
     x="0"
     y="0"
     overflow="hidden"
     data-bbox="79.4272659095343 69.44491363851049 368.1232155632154 265.8985884278187"
     version="1.1">
    <defs
       id="_yAqlnHAHDVHN-InymM1-f"
       transform="matrix(1.4178879261016846, 0, 0, 1.4178879261016846, -158.98028564453125, 37.507164001464844)"
       data-uid="o_f0degmjda_4" />
    <path
       id="_D3362TFUsbGrXuxGqduzt"
       fill="#52c8fa"
       text="wolkube"
       text-anchor="middle"
       font-size="100px"
       letter-spacing="0"
       side="left"
       offset="0.5"
       dx="0"
       dy="0"
       space="preserve"
       href=""
       font-family="Montserrat"
       font-scale="contain"
       x="0"
       y="0"
       data-fl-textpath=""
       data-uid="o_f0degmjda_19"
       d="m 34.239065,27.850741 h 5.627471 L 22.637817,72.602214 H 16.837193 L 2.4654971,35.933231 -11.906199,72.602214 h -5.800624 L -34.848966,27.850741 h 5.887201 L -14.676646,65.880985 -0.04522085,27.850741 H 5.2359444 L 19.780793,65.880985 Z m 32.206451,45.176867 q -6.579813,0 -11.860978,-2.93522 -5.281165,-2.93522 -8.311342,-8.12503 -3.030177,-5.189809 -3.030177,-11.740881 v 0 q 0,-6.551071 3.030177,-11.74088 3.030177,-5.18981 8.311342,-8.082491 5.281165,-2.892681 11.860978,-2.892681 v 0 q 6.579812,0 11.860978,2.892681 5.281165,2.892681 8.268053,8.082491 2.986889,5.189809 2.986889,11.74088 v 0 q 0,6.551072 -2.986889,11.740881 -2.986888,5.18981 -8.268053,8.12503 -5.281166,2.93522 -11.860978,2.93522 z m 0,-5.359967 q 4.848283,0 8.700936,-2.169511 3.852653,-2.16951 6.017065,-6.168216 2.164412,-3.998706 2.164412,-9.103437 v 0 q 0,-5.10473 -2.164412,-9.103436 -2.164412,-3.998706 -6.017065,-6.168217 -3.852653,-2.16951 -8.700936,-2.16951 v 0 q -4.848283,0 -8.700936,2.16951 -3.852654,2.169511 -6.060354,6.168217 -2.2077,3.998706 -2.2077,9.103436 v 0 q 0,5.104731 2.2077,9.103437 2.2077,3.998706 6.060354,6.168216 3.852653,2.169511 8.700936,2.169511 z m 35.669514,4.934573 V 9.4737097 h 6.14693 V 72.602214 Z m 58.5257,0 -18.35422,-22.460815 -10.73548,9.698988 V 72.602214 H 125.4041 V 9.4737097 h 6.14693 V 52.26837 l 27.18501,-24.417629 h 7.61873 l -19.4797,18.291952 21.29781,26.459521 z m 50.82039,-44.751473 h 6.14693 v 44.751473 h -5.8872 v -8.167569 q -2.42414,4.083784 -6.66639,6.338374 -4.24225,2.254589 -9.69657,2.254589 v 0 q -8.91737,0 -14.06867,-4.892033 -5.1513,-4.892034 -5.1513,-14.335786 v 0 -25.949048 h 6.14693 v 25.353496 q 0,7.061544 3.54963,10.719935 3.54964,3.65839 10.12945,3.65839 v 0 q 7.18585,0 11.34152,-4.296482 4.15567,-4.296481 4.15567,-11.953578 v 0 z M 258.299,27.510425 q 6.40665,0 11.60124,2.850142 5.19459,2.850141 8.13819,8.039951 2.9436,5.189809 2.9436,11.825959 v 0 q 0,6.63615 -2.9436,11.82596 -2.9436,5.18981 -8.13819,8.082491 -5.19459,2.89268 -11.60124,2.89268 v 0 q -5.71405,0 -10.25932,-2.382207 -4.54526,-2.382208 -7.31571,-6.891387 v 0 8.8482 h -5.8872 V 9.4737097 h 6.14693 V 36.358625 q 2.85702,-4.339021 7.31571,-6.59361 4.45869,-2.25459 9.99959,-2.25459 z m -0.43289,40.157216 q 4.76171,0 8.65765,-2.169511 3.89594,-2.16951 6.10364,-6.168216 2.2077,-3.998706 2.2077,-9.103437 v 0 q 0,-5.10473 -2.2077,-9.103436 -2.2077,-3.998706 -6.10364,-6.168217 -3.89594,-2.16951 -8.65765,-2.16951 v 0 q -4.84828,0 -8.70093,2.16951 -3.85266,2.169511 -6.06036,6.168217 -2.2077,3.998706 -2.2077,9.103436 v 0 q 0,5.104731 2.2077,9.103437 2.2077,3.998706 6.06036,6.168216 3.85265,2.169511 8.70093,2.169511 z m 75.40812,-17.441164 -0.0866,1.871735 H 295.094 q 0.51946,6.976465 5.45432,11.272947 4.93486,4.296482 12.46701,4.296482 v 0 q 4.24225,0 7.79188,-1.48888 3.54964,-1.48888 6.14693,-4.38156 v 0 l 3.46306,3.913627 q -3.03017,3.573311 -7.57544,5.445046 -4.54526,1.871734 -9.99958,1.871734 v 0 q -7.0127,0 -12.42373,-2.93522 -5.41103,-2.93522 -8.4412,-8.12503 -3.03018,-5.189809 -3.03018,-11.740881 v 0 q 0,-6.551071 2.90031,-11.74088 2.90031,-5.18981 7.96504,-8.082491 5.06472,-2.892681 11.3848,-2.892681 v 0 q 6.32009,0 11.34152,2.892681 5.02144,2.892681 7.87846,8.039951 2.85703,5.14727 2.85703,11.78342 z M 311.19722,32.700235 q -6.57981,0 -11.0385,4.126324 -4.45869,4.126324 -5.06472,10.762474 v 0 h 32.29303 q -0.60604,-6.63615 -5.06473,-10.762474 -4.45869,-4.126324 -11.12508,-4.126324 z"
       style="stroke-width:0.858244;fill:#0000ff" />
  </svg>
  <g
     id="g62"
     transform="matrix(0.91265597,0,0,0.91265597,-152.86844,-14.602496)"
     style="fill:#333333">
    <path
       d="m 72.6,17.95 c -0.3,-0.4 -0.45,-0.9 -0.44,-1.4 -0.34,0.27 -0.7,0.52 -1.08,0.76 -2.67,1.68 -6.32,2.73 -10.32,2.73 -4,0 -7.66,-1.04 -10.32,-2.73 -0.58,-0.36 -1.11,-0.76 -1.59,-1.18 v 3.1 c 0,3.63 2.97,5.98 6.78,7.04 1.6,0.45 3.34,0.67 5.08,0.67 1.74,0 3.48,-0.22 5.08,-0.67 3.83,-1.07 6.83,-3.42 6.83,-7.01 V 17.95 Z M 60.86,31.62 c 4,0 7.66,1.04 10.32,2.73 2.88,1.82 4.66,4.39 4.66,7.29 0,0.37 -0.03,0.73 -0.08,1.08 v 8.16 c 0,5.22 -3.98,8.53 -9.06,9.94 -1.86,0.52 -3.87,0.78 -5.89,0.78 -2.01,0 -4.03,-0.26 -5.89,-0.77 -5.06,-1.41 -9.02,-4.72 -9.02,-9.97 v -8.22 c 0,-0.09 0.01,-0.17 0.02,-0.25 -0.03,-0.24 -0.04,-0.49 -0.04,-0.74 0,-2.9 1.78,-5.48 4.66,-7.29 2.67,-1.7 6.32,-2.74 10.32,-2.74 z m 11.85,16.2 c -0.46,0.4 -0.97,0.77 -1.52,1.12 -2.67,1.68 -6.32,2.73 -10.32,2.73 -4,0 -7.66,-1.04 -10.32,-2.73 -0.58,-0.36 -1.11,-0.76 -1.59,-1.18 v 3.1 c 0,3.63 2.97,5.98 6.78,7.04 1.6,0.45 3.34,0.67 5.08,0.67 1.74,0 3.48,-0.22 5.08,-0.67 3.83,-1.07 6.83,-3.42 6.83,-7.01 v -3.07 z m -3.14,-10.9 c -2.2,-1.39 -5.28,-2.25 -8.7,-2.25 -3.43,0 -6.5,0.86 -8.7,2.25 -1.99,1.26 -3.23,2.93 -3.23,4.72 0,1.79 1.23,3.46 3.23,4.72 2.2,1.39 5.28,2.25 8.7,2.25 3.43,0 6.5,-0.86 8.7,-2.25 1.69,-1.07 2.83,-2.43 3.14,-3.92 v -0.28 c 0,-0.17 0.03,-0.34 0.08,-0.5 v -0.03 c 0,-1.78 -1.23,-3.45 -3.22,-4.71 z M 30.03,16.71 c 3.2,0 6.17,0.66 8.6,1.79 0.12,-0.12 0.26,-0.22 0.41,-0.31 l 6.28,-3.63 c 0.15,-0.09 0.31,-0.15 0.47,-0.2 v -3.35 c 0,-0.09 0.01,-0.17 0.02,-0.25 -0.03,-0.24 -0.04,-0.49 -0.04,-0.74 0,-2.9 1.78,-5.48 4.66,-7.29 C 53.1,1.04 56.75,0 60.75,0 c 4,0 7.66,1.04 10.32,2.73 2.88,1.82 4.66,4.39 4.66,7.29 0,0.37 -0.03,0.73 -0.08,1.08 v 3.66 l 6.84,3.75 c 0.14,0.08 0.27,0.17 0.39,0.27 2.65,-1.63 6.24,-2.63 10.17,-2.63 4,0 7.66,1.04 10.32,2.73 2.88,1.82 4.66,4.39 4.66,7.29 0,0.37 -0.03,0.73 -0.08,1.08 v 5.26 c 0.16,0.04 0.32,0.11 0.48,0.19 l 10.89,5.97 c 0.39,0.19 0.73,0.49 0.96,0.89 0.2,0.35 0.3,0.74 0.3,1.12 h 0.01 v 45.19 c 0,0.85 -0.48,1.6 -1.18,1.98 l -57.43,34.7 c -0.34,0.21 -0.72,0.31 -1.09,0.32 -0.04,0 -0.08,0 -0.12,0 -0.56,0 -1.08,-0.21 -1.47,-0.55 L 1.1,88.27 C 0.37,87.84 -0.03,87.06 0,86.26 L 0.69,41.74 C 0.67,41.33 0.76,40.91 0.97,40.52 1.2,40.1 1.55,39.79 1.95,39.6 l 12.47,-7.2 c 0.2,-0.12 0.42,-0.2 0.63,-0.25 v -4.43 c 0,-0.09 0.01,-0.17 0.02,-0.25 -0.03,-0.24 -0.04,-0.49 -0.04,-0.74 0,-2.9 1.78,-5.48 4.66,-7.29 2.68,-1.69 6.34,-2.73 10.34,-2.73 z m 12.61,4.56 c 1.5,1.56 2.37,3.43 2.37,5.46 0,0.37 -0.03,0.73 -0.08,1.08 v 8.16 c 0,5.22 -3.98,8.53 -9.06,9.94 -1.86,0.52 -3.87,0.78 -5.89,0.78 -2.01,0 -4.03,-0.26 -5.89,-0.77 -4.67,-1.3 -8.39,-4.21 -8.95,-8.77 l -7.69,4.44 53.28,29.85 53.05,-30.69 -6.05,-3.32 c -0.89,4.06 -4.45,6.71 -8.85,7.93 -1.86,0.52 -3.87,0.78 -5.89,0.78 -2.02,0 -4.03,-0.26 -5.89,-0.77 -5.06,-1.41 -9.02,-4.72 -9.02,-9.97 v -8.22 c 0,-0.09 0.01,-0.17 0.02,-0.25 -0.03,-0.24 -0.04,-0.49 -0.04,-0.74 0,-1.52 0.49,-2.96 1.37,-4.24 l -3.81,-2.08 c -0.29,4.88 -4.15,8 -9.05,9.36 -1.86,0.52 -3.87,0.78 -5.89,0.78 -2.02,0 -4.03,-0.26 -5.89,-0.77 -5,-1.39 -8.91,-4.63 -9.01,-9.76 z M 41.88,32.9 c -0.46,0.4 -0.97,0.77 -1.52,1.12 -2.67,1.68 -6.32,2.73 -10.32,2.73 -4,0 -7.66,-1.04 -10.32,-2.73 -0.58,-0.36 -1.11,-0.76 -1.59,-1.18 v 3.1 c 0,3.63 2.97,5.98 6.78,7.04 1.6,0.45 3.34,0.67 5.08,0.67 1.74,0 3.48,-0.22 5.08,-0.67 3.83,-1.07 6.83,-3.42 6.83,-7.01 V 32.9 Z M 38.73,22.01 c -2.2,-1.39 -5.28,-2.25 -8.7,-2.25 -3.43,0 -6.5,0.86 -8.7,2.25 -1.99,1.26 -3.23,2.93 -3.23,4.72 0,1.79 1.23,3.46 3.23,4.72 2.2,1.39 5.28,2.25 8.7,2.25 3.43,0 6.5,-0.86 8.7,-2.25 1.69,-1.07 2.83,-2.43 3.14,-3.92 v -0.28 c 0,-0.17 0.03,-0.34 0.08,-0.5 v -0.03 c 0.01,-1.78 -1.22,-3.45 -3.22,-4.71 z m 66.16,10.33 c -0.46,0.4 -0.97,0.77 -1.52,1.12 -2.67,1.68 -6.32,2.73 -10.32,2.73 -4,0 -7.66,-1.04 -10.32,-2.73 -0.58,-0.36 -1.11,-0.76 -1.59,-1.18 v 3.1 c 0,3.63 2.97,5.98 6.78,7.04 1.6,0.45 3.34,0.67 5.08,0.67 1.74,0 3.48,-0.22 5.08,-0.67 3.83,-1.07 6.83,-3.42 6.83,-7.01 v -3.07 z m -3.14,-10.89 c -2.2,-1.39 -5.28,-2.25 -8.7,-2.25 -3.43,0 -6.5,0.86 -8.7,2.25 -1.99,1.26 -3.23,2.93 -3.23,4.72 0,1.79 1.23,3.46 3.23,4.72 2.2,1.39 5.28,2.25 8.7,2.25 3.43,0 6.5,-0.86 8.7,-2.25 1.69,-1.07 2.83,-2.43 3.14,-3.92 V 26.7 c 0,-0.17 0.03,-0.34 0.08,-0.5 v -0.03 c 0,-1.79 -1.23,-3.47 -3.22,-4.72 z M 72.6,10.83 v -0.28 c 0,-0.17 0.03,-0.34 0.08,-0.5 v -0.03 c 0,-1.79 -1.23,-3.46 -3.23,-4.72 -2.2,-1.39 -5.28,-2.25 -8.7,-2.25 -3.43,0 -6.5,0.86 -8.7,2.25 -1.99,1.26 -3.23,2.93 -3.23,4.72 0,1.79 1.23,3.46 3.23,4.72 2.2,1.39 5.28,2.25 8.7,2.25 3.43,0 6.5,-0.86 8.7,-2.25 1.7,-1.06 2.84,-2.43 3.15,-3.91 z m -9.61,64.46 v 41.42 l 53.1,-32.09 V 44.57 Z M 58.51,116.7 V 75.31 L 5.1,45.4 4.49,85.07 Z"
       id="path60"
       style="fill:#333333" />
  </g>
</svg>
